<?xml version="1.0" ?><svg enable-background="new 0 0 64 64" version="1.1" viewBox="0 0 64 64" xml:space="preserve" xmlns="http://www.w3.org/2000/svg" xmlns:xlink="http://www.w3.org/1999/xlink"><g id="Glyph"><path d="M27.885,34.193l1.437-1.886c0.573-0.761,3.616-4.824,6.237-9.34v0.022h16.248V35.25H18.043v19.875h15.404V64h4V51.125   H22.043V39.25h33.764V18.989H37.662c1.122-2.39,1.896-4.678,1.896-6.447c0-7.337-4.58-12.078-11.674-12.078   S16.211,5.206,16.211,12.543c0,6.115,9.195,18.391,10.246,19.765L27.885,34.193z M24.095,12.623c0-2.088,1.693-3.781,3.781-3.781   s3.781,1.693,3.781,3.781c0,2.088-1.693,3.781-3.781,3.781S24.095,14.711,24.095,12.623z"/></g></svg>