<?xml version="1.0" encoding="iso-8859-1"?>
<!-- Generator: Adobe Illustrator 19.1.0, SVG Export Plug-In . SVG Version: 6.00 Build 0)  -->
<svg version="1.1" id="Capa_1" xmlns="http://www.w3.org/2000/svg" xmlns:xlink="http://www.w3.org/1999/xlink" x="0px" y="0px"
	 viewBox="0 0 70.77 70.77" style="enable-background:new 0 0 70.77 70.77;" xml:space="preserve">
<path d="M68.183,16.46c-1.63-0.846-2.038-1.825-2.843-3.407c-0.442-0.87-0.918-1.63-1.772-2.145
	c-0.862-0.52-2.736-0.485-3.365-1.195c-0.666-0.752-0.106-2.509,0.019-3.399c0.192-1.367-0.072-2.698-1.375-2.808
	c-0.214-0.071-0.468-0.068-0.752,0.047c-0.23,0.047-0.407,0.143-0.545,0.264c-2.502,1.23-4.523,3.749-6.355,5.725
	c-3.037,3.277-5.961,6.671-9.185,9.768c-2.622,2.519-4.988,4.771-8.777,4.527c-5.262-0.339-10.39-1.794-15.677-1.977
	c-3.546-0.123-7.558,0.257-10.479,2.41c-2.339-2.603-4.167-5.495-4.653-9.053c-0.217-1.587-2.626-0.911-2.411,0.665
	c0.541,3.955,2.658,7.236,5.275,10.133c-3.111,3.964-2.73,9.543-1.148,14.025c0.422,1.197,0.955,2.447,1.037,3.73
	c0.103,1.609-0.562,3.31-1.053,4.823c-0.799,2.457-1.436,4.701-1.12,7.306c0.458,3.788,1.743,10.682,6.491,11.361
	c1.654,0.237,3.782-0.249,4.525-1.926c0.878-1.982-1.106-4.435-1.757-6.24c-0.559-1.549-1.193-3.536-0.329-5.061
	c0.675-1.191,2.173-2.025,3.177-2.908c0.882-0.775,1.742-1.607,2.353-2.621c0.685-1.138,0.674-2.422,1.195-3.563
	c1.119-2.452,6.013-3.057,8.39-3.196c2.085-0.122,4.08,0.05,6.102,0.553c4.946,1.23,8.98,3.573,9.82,8.881
	c0.704,4.453,0.594,10.575,3.83,14.113c2.005,2.192,8.529,3.154,7.924-1.362c-0.137-1.024-0.678-1.936-1.288-2.751
	c-0.506-0.675-1.457-1.238-1.839-1.935c-1.089-1.991-0.4-5.532-0.239-7.661c0.127-1.682,0.128-3.478,0.735-5.071
	c0.459-1.204,1.263-2.184,1.987-3.229c1.188-1.715,1.485-3.462,1.711-5.512c0.304-2.762,0.346-5.545,0.514-8.316
	c0.136-2.252-0.278-5.701,2.815-5.642c1.399,0.027,2.558,0.974,3.898,1.221c1.128,0.208,2.381,0.008,3.469-0.322
	c2.25-0.683,4.017-2.328,4.264-4.769C70.947,17.988,69.736,17.266,68.183,16.46z M53.642,32.651
	c-0.107,2.161-0.176,4.348-0.536,6.485c-0.36,2.138-1.769,3.387-2.764,5.233c-1.267,2.351-1.334,5.035-1.517,7.642
	c-0.156,2.224-0.378,4.607,0.06,6.817c0.321,1.619,1.069,2.139,2.132,3.328c0.981,1.097,2.041,2.635-0.209,2.512
	c-1.419-0.078-2.296-1.029-2.931-2.204c-2.434-4.5-1.393-10.079-3.123-14.768c-2.495-6.762-12.129-8.97-18.521-8.395
	c-2.484,0.224-4.9,0.811-7.124,1.96c-2.141,1.106-2.515,1.765-3.034,3.95c-1.151,4.839-7.58,5.793-6.971,11.334
	c0.232,2.115,1.038,3.968,1.905,5.884c0.438,0.967,1.427,1.949-0.475,2.39c-0.636,0.147-1.228-0.104-1.726-0.431
	c-1.022-0.669-1.579-2.102-1.983-3.188c-1.001-2.692-1.806-5.945-1.237-8.806c0.494-2.482,1.704-4.77,2.016-7.302
	c0.28-2.277-0.58-4.312-1.306-6.424c-0.989-2.879-1.27-5.891-0.257-8.827c1.78-5.157,7.488-5.706,12.206-5.452
	c5.209,0.28,10.294,1.773,15.501,1.974c3.416,0.132,5.807-1.518,8.307-3.698c1.084-0.945,2.116-1.949,3.129-2.972
	c1.976,3.38,4.995,5.721,8.586,7.376C53.589,29.061,53.714,31.179,53.642,32.651z M66.697,21.95
	c-3.661,2.254-8.084-2.996-11.465,0.756c-0.446,0.495-0.76,1.129-0.989,1.838c-3.071-1.548-5.582-3.671-7.227-6.74
	c1.443-1.538,2.85-3.112,4.267-4.664c1.396-1.53,2.789-3.068,4.26-4.527c0.622-0.617,1.328-1.397,2.104-1.989
	c-0.002,0.014-0.004,0.025-0.006,0.04c-0.059,0.392-0.126,0.79-0.154,1.186c-0.067,0.953-0.068,1.994,0.381,2.869
	c0.787,1.535,2.438,1.464,3.848,2.116c1.938,0.898,1.983,3.561,3.679,4.893c0.597,0.469,1.339,0.645,1.937,1.071
	c0.527,0.375,0.831,0.155,0.934,0.982C68.367,20.621,67.276,21.594,66.697,21.95z"/>
<g>
</g>
<g>
</g>
<g>
</g>
<g>
</g>
<g>
</g>
<g>
</g>
<g>
</g>
<g>
</g>
<g>
</g>
<g>
</g>
<g>
</g>
<g>
</g>
<g>
</g>
<g>
</g>
<g>
</g>
</svg>
