<svg xmlns="http://www.w3.org/2000/svg" xmlns:xlink="http://www.w3.org/1999/xlink" id="back" viewBox="0 0 1501 1501"><defs><style>.cls-1,.cls-2{stroke:#fff}.cls-1,.cls-2,.cls-4{stroke-miterlimit:10}.cls-1{fill:url(#linear-gradient)}.cls-2{fill:none;opacity:.58}.cls-3{fill:url(#linear-gradient-2)}.cls-4{stroke-width:2px;fill:url(#linear-gradient-3);stroke:url(#linear-gradient-4)}</style><linearGradient id="linear-gradient" x1="271.062" x2="1229.938" y1="668.201" y2="668.201" gradientUnits="userSpaceOnUse"><stop offset="0" stop-color="#fff"/><stop offset=".063" stop-color="#f9f9f9"/><stop offset=".15" stop-color="#e7e7e7"/><stop offset=".25" stop-color="#cacaca"/><stop offset=".36" stop-color="#a2a2a2"/><stop offset=".478" stop-color="#6f6f6f"/><stop offset=".601" stop-color="#313131"/><stop offset=".689"/></linearGradient><linearGradient id="linear-gradient-2" x1="167.328" x2="300.248" y1="553.163" y2="553.163" gradientUnits="userSpaceOnUse"><stop offset="0" stop-color="#fff"/><stop offset=".103" stop-color="#d8d8d8"/><stop offset=".289" stop-color="#979797"/><stop offset=".467" stop-color="#616161"/><stop offset=".631" stop-color="#373737"/><stop offset=".779" stop-color="#191919"/><stop offset=".905" stop-color="#070707"/><stop offset=".994"/></linearGradient><linearGradient id="linear-gradient-3" x1="694.506" x2="841.89" y1="461.593" y2="461.593" gradientUnits="userSpaceOnUse"><stop offset="0" stop-color="#fff"/><stop offset=".188" stop-color="silver"/><stop offset=".408" stop-color="#7c7c7c"/><stop offset=".607" stop-color="#474747"/><stop offset=".778" stop-color="#202020"/><stop offset=".915" stop-color="#090909"/><stop offset="1"/></linearGradient><linearGradient id="linear-gradient-4" x1="693.506" x2="842.597" y1="461.595" y2="461.595" gradientUnits="userSpaceOnUse"><stop offset="0" stop-color="#fff"/><stop offset="1"/></linearGradient></defs><circle cx="750.5" cy="668.201" r="479.436" class="cls-1"/><rect width="1500" height="1500" x=".5" y=".5" class="cls-2"/><g id="Layer_1" data-name="Layer 1"><path d="M167.32777,807.814S284.18824,775.1144,295.30633,679.83541s0-381.32377,0-381.32377H233.78774l-66.46,54.508Z" class="cls-3" transform="translate(250 170.26743)"/><path d="M841.88953,214.79071S694.50581,228.746,694.50581,362.17443s.8721,346.22093.8721,346.22093h102.907l43.60465-43.60465" class="cls-4" transform="translate(250 170.26743)"/><path d="M476.04565,381.79738,348.28488,254.03661s-44.25629-30.30547-74.56176,0-106.39535,98.983-106.39535,98.983,55.62534-27.67653,83.30187,0S672.72267,781.632,672.72267,781.632s33.15988,19.16571,52.32558,0L826.19186,680.48838s-29.4327,23.32979-52.76249,0S476.04565,381.79738,476.04565,381.79738Z" transform="translate(250 170.26743)"/></g></svg>